<svg width="62" height="13" viewBox="0 0 62 13" fill="none" xmlns="http://www.w3.org/2000/svg">
<path d="M4.912 12.096C4.08 12.096 3.28 11.9627 2.512 11.696C1.75467 11.4293 1.168 11.0773 0.752 10.64L1.216 9.728C1.62133 10.1333 2.16 10.464 2.832 10.72C3.504 10.9653 4.19733 11.088 4.912 11.088C5.91467 11.088 6.66667 10.9067 7.168 10.544C7.66933 10.1707 7.92 9.69067 7.92 9.104C7.92 8.656 7.78133 8.29867 7.504 8.032C7.23733 7.76533 6.90667 7.56267 6.512 7.424C6.11733 7.27467 5.568 7.11467 4.864 6.944C4.02133 6.73067 3.34933 6.528 2.848 6.336C2.34667 6.13333 1.91467 5.82933 1.552 5.424C1.2 5.01867 1.024 4.46933 1.024 3.776C1.024 3.21067 1.17333 2.69867 1.472 2.24C1.77067 1.77067 2.22933 1.39733 2.848 1.12C3.46667 0.842666 4.23467 0.704 5.152 0.704C5.792 0.704 6.416 0.794666 7.024 0.976C7.64267 1.14667 8.176 1.38667 8.624 1.696L8.224 2.64C7.75467 2.33067 7.25333 2.10133 6.72 1.952C6.18667 1.792 5.664 1.712 5.152 1.712C4.17067 1.712 3.42933 1.904 2.928 2.288C2.43733 2.66133 2.192 3.14667 2.192 3.744C2.192 4.192 2.32533 4.55467 2.592 4.832C2.86933 5.09867 3.21067 5.30667 3.616 5.456C4.032 5.59467 4.58667 5.74933 5.28 5.92C6.10133 6.12267 6.76267 6.32533 7.264 6.528C7.776 6.72 8.208 7.01867 8.56 7.424C8.912 7.81867 9.088 8.35733 9.088 9.04C9.088 9.60533 8.93333 10.1227 8.624 10.592C8.32533 11.0507 7.86133 11.4187 7.232 11.696C6.60267 11.9627 5.82933 12.096 4.912 12.096ZM16.5318 12.096C15.4224 12.096 14.4198 11.8507 13.5238 11.36C12.6384 10.8693 11.9398 10.192 11.4278 9.328C10.9264 8.45333 10.6758 7.47733 10.6758 6.4C10.6758 5.32267 10.9264 4.352 11.4278 3.488C11.9398 2.61333 12.6438 1.93067 13.5398 1.44C14.4358 0.949333 15.4384 0.704 16.5478 0.704C17.3798 0.704 18.1478 0.842666 18.8518 1.12C19.5558 1.39733 20.1531 1.80267 20.6438 2.336L19.8918 3.088C19.0171 2.20267 17.9131 1.76 16.5798 1.76C15.6944 1.76 14.8891 1.96267 14.1638 2.368C13.4384 2.77333 12.8678 3.328 12.4518 4.032C12.0464 4.736 11.8438 5.52533 11.8438 6.4C11.8438 7.27467 12.0464 8.064 12.4518 8.768C12.8678 9.472 13.4384 10.0267 14.1638 10.432C14.8891 10.8373 15.6944 11.04 16.5798 11.04C17.9238 11.04 19.0278 10.592 19.8918 9.696L20.6438 10.448C20.1531 10.9813 19.5504 11.392 18.8358 11.68C18.1318 11.9573 17.3638 12.096 16.5318 12.096ZM29.9105 9.008H23.6705L22.3265 12H21.0945L26.2145 0.799999H27.3825L32.5025 12H31.2545L29.9105 9.008ZM29.4785 8.048L26.7905 2.032L24.1025 8.048H29.4785ZM43.7153 0.799999V12H42.7393L35.5393 2.912V12H34.3553V0.799999H35.3313L42.5473 9.888V0.799999H43.7153ZM47.3709 0.799999H51.9309C53.1149 0.799999 54.1602 1.04 55.0669 1.52C55.9735 1.98933 56.6775 2.65067 57.1789 3.504C57.6802 4.34667 57.9309 5.312 57.9309 6.4C57.9309 7.488 57.6802 8.45867 57.1789 9.312C56.6775 10.1547 55.9735 10.816 55.0669 11.296C54.1602 11.7653 53.1149 12 51.9309 12H47.3709V0.799999ZM51.8669 10.976C52.8482 10.976 53.7069 10.784 54.4429 10.4C55.1789 10.0053 55.7495 9.46667 56.1549 8.784C56.5602 8.09067 56.7629 7.296 56.7629 6.4C56.7629 5.504 56.5602 4.71467 56.1549 4.032C55.7495 3.33867 55.1789 2.8 54.4429 2.416C53.7069 2.02133 52.8482 1.824 51.8669 1.824H48.5549V10.976H51.8669ZM60.5896 0.799999H61.7736V12H60.5896V0.799999Z" fill="#533738"/>
</svg>
